<mxfile host="app.diagrams.net" agent="Mozilla/5.0 (Windows NT 10.0; Win64; x64) AppleWebKit/537.36 (KHTML, like Gecko) Chrome/136.0.0.0 Safari/537.36" version="27.0.6">
  <diagram name="第1頁" id="7BvQk-bxPXkPBGm2gwmo">
    <mxGraphModel dx="754" dy="294" grid="1" gridSize="10" guides="1" tooltips="1" connect="1" arrows="1" fold="1" page="1" pageScale="1" pageWidth="1169" pageHeight="827" math="0" shadow="0">
      <root>
        <mxCell id="0" />
        <mxCell id="1" parent="0" />
        <mxCell id="0-MdYvm-MBJdV8fhec4m-93" value="" style="curved=1;endArrow=classic;html=1;rounded=0;strokeColor=#CCCCCC;strokeWidth=2;align=center;verticalAlign=middle;fontFamily=Helvetica;fontSize=11;fontColor=default;labelBackgroundColor=default;endFill=1;entryX=0.117;entryY=0.68;entryDx=0;entryDy=0;entryPerimeter=0;" edge="1" parent="1">
          <mxGeometry width="50" height="50" relative="1" as="geometry">
            <mxPoint x="820" y="455" as="sourcePoint" />
            <mxPoint x="935" y="181" as="targetPoint" />
            <Array as="points">
              <mxPoint x="870" y="455" />
              <mxPoint x="890" y="260" />
              <mxPoint x="890" y="220" />
              <mxPoint x="900" y="189" />
            </Array>
          </mxGeometry>
        </mxCell>
        <mxCell id="0-MdYvm-MBJdV8fhec4m-92" value="" style="curved=1;endArrow=classic;html=1;rounded=0;strokeColor=#CCCCCC;strokeWidth=2;align=center;verticalAlign=middle;fontFamily=Helvetica;fontSize=11;fontColor=default;labelBackgroundColor=default;endFill=1;entryX=0.117;entryY=0.68;entryDx=0;entryDy=0;entryPerimeter=0;" edge="1" parent="1">
          <mxGeometry width="50" height="50" relative="1" as="geometry">
            <mxPoint x="620" y="455" as="sourcePoint" />
            <mxPoint x="735" y="181" as="targetPoint" />
            <Array as="points">
              <mxPoint x="670" y="455" />
              <mxPoint x="690" y="260" />
              <mxPoint x="690" y="220" />
              <mxPoint x="700" y="189" />
            </Array>
          </mxGeometry>
        </mxCell>
        <mxCell id="0-MdYvm-MBJdV8fhec4m-18" value="" style="endArrow=none;dashed=1;html=1;dashPattern=1 4;strokeWidth=2;rounded=0;" edge="1" parent="1">
          <mxGeometry width="50" height="50" relative="1" as="geometry">
            <mxPoint x="940" y="180" as="sourcePoint" />
            <mxPoint x="1000" y="180" as="targetPoint" />
          </mxGeometry>
        </mxCell>
        <mxCell id="0-MdYvm-MBJdV8fhec4m-55" value="" style="group" vertex="1" connectable="0" parent="1">
          <mxGeometry x="520" y="120" width="140" height="350" as="geometry" />
        </mxCell>
        <mxCell id="0-MdYvm-MBJdV8fhec4m-67" style="edgeStyle=orthogonalEdgeStyle;rounded=0;orthogonalLoop=1;jettySize=auto;html=1;exitX=0.5;exitY=1;exitDx=0;exitDy=0;entryX=0.5;entryY=0;entryDx=0;entryDy=0;strokeColor=#CCCCCC;strokeWidth=2;align=center;verticalAlign=middle;fontFamily=Helvetica;fontSize=11;fontColor=default;labelBackgroundColor=default;endArrow=classic;endFill=1;" edge="1" parent="0-MdYvm-MBJdV8fhec4m-55" source="0-MdYvm-MBJdV8fhec4m-59" target="0-MdYvm-MBJdV8fhec4m-66">
          <mxGeometry relative="1" as="geometry" />
        </mxCell>
        <mxCell id="0-MdYvm-MBJdV8fhec4m-56" value="" style="group" vertex="1" connectable="0" parent="0-MdYvm-MBJdV8fhec4m-55">
          <mxGeometry width="140" height="310" as="geometry" />
        </mxCell>
        <mxCell id="0-MdYvm-MBJdV8fhec4m-57" value="" style="endArrow=none;html=1;rounded=0;strokeColor=#CCCCCC;strokeWidth=2;" edge="1" parent="0-MdYvm-MBJdV8fhec4m-56">
          <mxGeometry width="50" height="50" relative="1" as="geometry">
            <mxPoint x="69.5" y="170" as="sourcePoint" />
            <mxPoint x="69.5" y="80" as="targetPoint" />
          </mxGeometry>
        </mxCell>
        <mxCell id="0-MdYvm-MBJdV8fhec4m-58" value="&lt;font face=&quot;標楷體&quot;&gt;環境 2&lt;/font&gt;&lt;div&gt;&lt;font face=&quot;標楷體&quot;&gt;Environment 2&amp;nbsp;&lt;/font&gt;&lt;/div&gt;" style="ellipse;shape=cloud;whiteSpace=wrap;html=1;" vertex="1" parent="0-MdYvm-MBJdV8fhec4m-56">
          <mxGeometry width="130" height="90" as="geometry" />
        </mxCell>
        <mxCell id="0-MdYvm-MBJdV8fhec4m-59" value="" style="rounded=1;whiteSpace=wrap;html=1;" vertex="1" parent="0-MdYvm-MBJdV8fhec4m-56">
          <mxGeometry x="10" y="110" width="120" height="170" as="geometry" />
        </mxCell>
        <mxCell id="0-MdYvm-MBJdV8fhec4m-60" value="&lt;p&gt;&lt;font face=&quot;標楷體&quot;&gt;制定 2&lt;br&gt;Enactment 2&lt;/font&gt;&lt;/p&gt;" style="text;html=1;align=center;verticalAlign=middle;whiteSpace=wrap;rounded=0;" vertex="1" parent="0-MdYvm-MBJdV8fhec4m-56">
          <mxGeometry x="35" y="120" width="70" height="30" as="geometry" />
        </mxCell>
        <mxCell id="0-MdYvm-MBJdV8fhec4m-61" style="edgeStyle=orthogonalEdgeStyle;rounded=0;orthogonalLoop=1;jettySize=auto;html=1;exitX=0.5;exitY=1;exitDx=0;exitDy=0;strokeColor=#CCCCCC;strokeWidth=2;align=center;verticalAlign=middle;fontFamily=Helvetica;fontSize=11;fontColor=default;labelBackgroundColor=default;endArrow=classic;endFill=1;" edge="1" parent="0-MdYvm-MBJdV8fhec4m-56" source="0-MdYvm-MBJdV8fhec4m-62">
          <mxGeometry relative="1" as="geometry">
            <mxPoint x="70" y="230" as="targetPoint" />
          </mxGeometry>
        </mxCell>
        <mxCell id="0-MdYvm-MBJdV8fhec4m-62" value="&lt;font face=&quot;標楷體&quot;&gt;認知&lt;/font&gt;" style="rounded=1;whiteSpace=wrap;html=1;" vertex="1" parent="0-MdYvm-MBJdV8fhec4m-56">
          <mxGeometry x="40" y="160" width="60" height="30" as="geometry" />
        </mxCell>
        <mxCell id="0-MdYvm-MBJdV8fhec4m-63" value="&lt;font face=&quot;標楷體&quot;&gt;行動&lt;/font&gt;" style="rounded=1;whiteSpace=wrap;html=1;" vertex="1" parent="0-MdYvm-MBJdV8fhec4m-56">
          <mxGeometry x="40" y="230" width="60" height="30" as="geometry" />
        </mxCell>
        <mxCell id="0-MdYvm-MBJdV8fhec4m-64" value="&lt;font face=&quot;標楷體&quot;&gt;驅動&lt;/font&gt;" style="text;html=1;align=center;verticalAlign=middle;whiteSpace=wrap;rounded=0;" vertex="1" parent="0-MdYvm-MBJdV8fhec4m-56">
          <mxGeometry x="77" y="197" width="30" height="20" as="geometry" />
        </mxCell>
        <mxCell id="0-MdYvm-MBJdV8fhec4m-65" value="&lt;font face=&quot;標楷體&quot;&gt;產生&lt;/font&gt;" style="text;html=1;align=center;verticalAlign=middle;whiteSpace=wrap;rounded=0;" vertex="1" parent="0-MdYvm-MBJdV8fhec4m-56">
          <mxGeometry x="77" y="285" width="30" height="20" as="geometry" />
        </mxCell>
        <mxCell id="0-MdYvm-MBJdV8fhec4m-66" value="&lt;font face=&quot;標楷體&quot;&gt;結果&lt;/font&gt;" style="rounded=1;whiteSpace=wrap;html=1;" vertex="1" parent="0-MdYvm-MBJdV8fhec4m-55">
          <mxGeometry x="40" y="320" width="60" height="30" as="geometry" />
        </mxCell>
        <mxCell id="0-MdYvm-MBJdV8fhec4m-68" value="" style="group" vertex="1" connectable="0" parent="1">
          <mxGeometry x="720" y="120" width="140" height="350" as="geometry" />
        </mxCell>
        <mxCell id="0-MdYvm-MBJdV8fhec4m-80" style="edgeStyle=orthogonalEdgeStyle;rounded=0;orthogonalLoop=1;jettySize=auto;html=1;exitX=0.5;exitY=1;exitDx=0;exitDy=0;entryX=0.5;entryY=0;entryDx=0;entryDy=0;strokeColor=#CCCCCC;strokeWidth=2;align=center;verticalAlign=middle;fontFamily=Helvetica;fontSize=11;fontColor=default;labelBackgroundColor=default;endArrow=classic;endFill=1;" edge="1" parent="0-MdYvm-MBJdV8fhec4m-68" source="0-MdYvm-MBJdV8fhec4m-72" target="0-MdYvm-MBJdV8fhec4m-79">
          <mxGeometry relative="1" as="geometry" />
        </mxCell>
        <mxCell id="0-MdYvm-MBJdV8fhec4m-69" value="" style="group" vertex="1" connectable="0" parent="0-MdYvm-MBJdV8fhec4m-68">
          <mxGeometry width="140" height="310" as="geometry" />
        </mxCell>
        <mxCell id="0-MdYvm-MBJdV8fhec4m-70" value="" style="endArrow=none;html=1;rounded=0;strokeColor=#CCCCCC;strokeWidth=2;" edge="1" parent="0-MdYvm-MBJdV8fhec4m-69">
          <mxGeometry width="50" height="50" relative="1" as="geometry">
            <mxPoint x="69.5" y="170" as="sourcePoint" />
            <mxPoint x="69.5" y="80" as="targetPoint" />
          </mxGeometry>
        </mxCell>
        <mxCell id="0-MdYvm-MBJdV8fhec4m-71" value="&lt;font face=&quot;標楷體&quot;&gt;環境 3&lt;/font&gt;&lt;div&gt;&lt;font face=&quot;標楷體&quot;&gt;Environment 3&amp;nbsp;&lt;/font&gt;&lt;/div&gt;" style="ellipse;shape=cloud;whiteSpace=wrap;html=1;" vertex="1" parent="0-MdYvm-MBJdV8fhec4m-69">
          <mxGeometry width="130" height="90" as="geometry" />
        </mxCell>
        <mxCell id="0-MdYvm-MBJdV8fhec4m-72" value="" style="rounded=1;whiteSpace=wrap;html=1;" vertex="1" parent="0-MdYvm-MBJdV8fhec4m-69">
          <mxGeometry x="10" y="110" width="120" height="170" as="geometry" />
        </mxCell>
        <mxCell id="0-MdYvm-MBJdV8fhec4m-73" value="&lt;p&gt;&lt;font face=&quot;標楷體&quot;&gt;制定 3&lt;br&gt;Enactment 3&lt;/font&gt;&lt;/p&gt;" style="text;html=1;align=center;verticalAlign=middle;whiteSpace=wrap;rounded=0;" vertex="1" parent="0-MdYvm-MBJdV8fhec4m-69">
          <mxGeometry x="35" y="120" width="70" height="30" as="geometry" />
        </mxCell>
        <mxCell id="0-MdYvm-MBJdV8fhec4m-74" style="edgeStyle=orthogonalEdgeStyle;rounded=0;orthogonalLoop=1;jettySize=auto;html=1;exitX=0.5;exitY=1;exitDx=0;exitDy=0;strokeColor=#CCCCCC;strokeWidth=2;align=center;verticalAlign=middle;fontFamily=Helvetica;fontSize=11;fontColor=default;labelBackgroundColor=default;endArrow=classic;endFill=1;" edge="1" parent="0-MdYvm-MBJdV8fhec4m-69" source="0-MdYvm-MBJdV8fhec4m-75">
          <mxGeometry relative="1" as="geometry">
            <mxPoint x="70" y="230" as="targetPoint" />
          </mxGeometry>
        </mxCell>
        <mxCell id="0-MdYvm-MBJdV8fhec4m-75" value="&lt;font face=&quot;標楷體&quot;&gt;認知&lt;/font&gt;" style="rounded=1;whiteSpace=wrap;html=1;" vertex="1" parent="0-MdYvm-MBJdV8fhec4m-69">
          <mxGeometry x="40" y="160" width="60" height="30" as="geometry" />
        </mxCell>
        <mxCell id="0-MdYvm-MBJdV8fhec4m-76" value="&lt;font face=&quot;標楷體&quot;&gt;行動&lt;/font&gt;" style="rounded=1;whiteSpace=wrap;html=1;" vertex="1" parent="0-MdYvm-MBJdV8fhec4m-69">
          <mxGeometry x="40" y="230" width="60" height="30" as="geometry" />
        </mxCell>
        <mxCell id="0-MdYvm-MBJdV8fhec4m-77" value="&lt;font face=&quot;標楷體&quot;&gt;驅動&lt;/font&gt;" style="text;html=1;align=center;verticalAlign=middle;whiteSpace=wrap;rounded=0;" vertex="1" parent="0-MdYvm-MBJdV8fhec4m-69">
          <mxGeometry x="77" y="197" width="30" height="20" as="geometry" />
        </mxCell>
        <mxCell id="0-MdYvm-MBJdV8fhec4m-78" value="&lt;font face=&quot;標楷體&quot;&gt;產生&lt;/font&gt;" style="text;html=1;align=center;verticalAlign=middle;whiteSpace=wrap;rounded=0;" vertex="1" parent="0-MdYvm-MBJdV8fhec4m-69">
          <mxGeometry x="77" y="285" width="30" height="20" as="geometry" />
        </mxCell>
        <mxCell id="0-MdYvm-MBJdV8fhec4m-79" value="&lt;font face=&quot;標楷體&quot;&gt;結果&lt;/font&gt;" style="rounded=1;whiteSpace=wrap;html=1;" vertex="1" parent="0-MdYvm-MBJdV8fhec4m-68">
          <mxGeometry x="40" y="320" width="60" height="30" as="geometry" />
        </mxCell>
        <mxCell id="0-MdYvm-MBJdV8fhec4m-54" value="" style="group" vertex="1" connectable="0" parent="1">
          <mxGeometry x="320" y="120" width="140" height="350" as="geometry" />
        </mxCell>
        <mxCell id="0-MdYvm-MBJdV8fhec4m-51" style="edgeStyle=orthogonalEdgeStyle;rounded=0;orthogonalLoop=1;jettySize=auto;html=1;exitX=0.5;exitY=1;exitDx=0;exitDy=0;entryX=0.5;entryY=0;entryDx=0;entryDy=0;strokeColor=#CCCCCC;strokeWidth=2;align=center;verticalAlign=middle;fontFamily=Helvetica;fontSize=11;fontColor=default;labelBackgroundColor=default;endArrow=classic;endFill=1;" edge="1" parent="0-MdYvm-MBJdV8fhec4m-54" source="0-MdYvm-MBJdV8fhec4m-2" target="0-MdYvm-MBJdV8fhec4m-50">
          <mxGeometry relative="1" as="geometry" />
        </mxCell>
        <mxCell id="0-MdYvm-MBJdV8fhec4m-20" value="" style="group" vertex="1" connectable="0" parent="0-MdYvm-MBJdV8fhec4m-54">
          <mxGeometry width="140" height="310" as="geometry" />
        </mxCell>
        <mxCell id="0-MdYvm-MBJdV8fhec4m-11" value="" style="endArrow=none;html=1;rounded=0;strokeColor=#CCCCCC;strokeWidth=2;" edge="1" parent="0-MdYvm-MBJdV8fhec4m-20">
          <mxGeometry width="50" height="50" relative="1" as="geometry">
            <mxPoint x="69.5" y="170" as="sourcePoint" />
            <mxPoint x="69.5" y="80" as="targetPoint" />
          </mxGeometry>
        </mxCell>
        <mxCell id="0-MdYvm-MBJdV8fhec4m-1" value="&lt;font face=&quot;標楷體&quot;&gt;環境 1&lt;/font&gt;&lt;div&gt;&lt;font face=&quot;標楷體&quot;&gt;Environment 1&amp;nbsp;&lt;/font&gt;&lt;/div&gt;" style="ellipse;shape=cloud;whiteSpace=wrap;html=1;" vertex="1" parent="0-MdYvm-MBJdV8fhec4m-20">
          <mxGeometry width="130" height="90" as="geometry" />
        </mxCell>
        <mxCell id="0-MdYvm-MBJdV8fhec4m-2" value="" style="rounded=1;whiteSpace=wrap;html=1;" vertex="1" parent="0-MdYvm-MBJdV8fhec4m-20">
          <mxGeometry x="10" y="110" width="120" height="170" as="geometry" />
        </mxCell>
        <mxCell id="0-MdYvm-MBJdV8fhec4m-40" value="&lt;p&gt;&lt;font face=&quot;標楷體&quot;&gt;制定 1&lt;br&gt;Enactment 1&lt;/font&gt;&lt;/p&gt;" style="text;html=1;align=center;verticalAlign=middle;whiteSpace=wrap;rounded=0;" vertex="1" parent="0-MdYvm-MBJdV8fhec4m-20">
          <mxGeometry x="35" y="120" width="70" height="30" as="geometry" />
        </mxCell>
        <mxCell id="0-MdYvm-MBJdV8fhec4m-44" style="edgeStyle=orthogonalEdgeStyle;rounded=0;orthogonalLoop=1;jettySize=auto;html=1;exitX=0.5;exitY=1;exitDx=0;exitDy=0;strokeColor=#CCCCCC;strokeWidth=2;align=center;verticalAlign=middle;fontFamily=Helvetica;fontSize=11;fontColor=default;labelBackgroundColor=default;endArrow=classic;endFill=1;" edge="1" parent="0-MdYvm-MBJdV8fhec4m-20" source="0-MdYvm-MBJdV8fhec4m-41">
          <mxGeometry relative="1" as="geometry">
            <mxPoint x="70" y="230" as="targetPoint" />
          </mxGeometry>
        </mxCell>
        <mxCell id="0-MdYvm-MBJdV8fhec4m-41" value="&lt;font face=&quot;標楷體&quot;&gt;認知&lt;/font&gt;" style="rounded=1;whiteSpace=wrap;html=1;" vertex="1" parent="0-MdYvm-MBJdV8fhec4m-20">
          <mxGeometry x="40" y="160" width="60" height="30" as="geometry" />
        </mxCell>
        <mxCell id="0-MdYvm-MBJdV8fhec4m-42" value="&lt;font face=&quot;標楷體&quot;&gt;行動&lt;/font&gt;" style="rounded=1;whiteSpace=wrap;html=1;" vertex="1" parent="0-MdYvm-MBJdV8fhec4m-20">
          <mxGeometry x="40" y="230" width="60" height="30" as="geometry" />
        </mxCell>
        <mxCell id="0-MdYvm-MBJdV8fhec4m-46" value="&lt;font face=&quot;標楷體&quot;&gt;驅動&lt;/font&gt;" style="text;html=1;align=center;verticalAlign=middle;whiteSpace=wrap;rounded=0;" vertex="1" parent="0-MdYvm-MBJdV8fhec4m-20">
          <mxGeometry x="77" y="197" width="30" height="20" as="geometry" />
        </mxCell>
        <mxCell id="0-MdYvm-MBJdV8fhec4m-47" value="&lt;font face=&quot;標楷體&quot;&gt;產生&lt;/font&gt;" style="text;html=1;align=center;verticalAlign=middle;whiteSpace=wrap;rounded=0;" vertex="1" parent="0-MdYvm-MBJdV8fhec4m-20">
          <mxGeometry x="77" y="285" width="30" height="20" as="geometry" />
        </mxCell>
        <mxCell id="0-MdYvm-MBJdV8fhec4m-82" value="" style="curved=1;endArrow=classic;html=1;rounded=0;strokeColor=#CCCCCC;strokeWidth=2;align=center;verticalAlign=middle;fontFamily=Helvetica;fontSize=11;fontColor=default;labelBackgroundColor=default;endFill=1;entryX=0.117;entryY=0.68;entryDx=0;entryDy=0;entryPerimeter=0;" edge="1" parent="0-MdYvm-MBJdV8fhec4m-20" target="0-MdYvm-MBJdV8fhec4m-58">
          <mxGeometry width="50" height="50" relative="1" as="geometry">
            <mxPoint x="100" y="335" as="sourcePoint" />
            <mxPoint x="150" y="285" as="targetPoint" />
            <Array as="points">
              <mxPoint x="150" y="335" />
              <mxPoint x="170" y="140" />
              <mxPoint x="170" y="100" />
              <mxPoint x="180" y="69" />
            </Array>
          </mxGeometry>
        </mxCell>
        <mxCell id="0-MdYvm-MBJdV8fhec4m-50" value="&lt;font face=&quot;標楷體&quot;&gt;結果&lt;/font&gt;" style="rounded=1;whiteSpace=wrap;html=1;" vertex="1" parent="0-MdYvm-MBJdV8fhec4m-54">
          <mxGeometry x="40" y="320" width="60" height="30" as="geometry" />
        </mxCell>
      </root>
    </mxGraphModel>
  </diagram>
</mxfile>
